<svg id="Layer_1" data-name="Layer 1" xmlns="http://www.w3.org/2000/svg" viewBox="0 0 925.47 925.43"><path d="M884.7,512a411.72,411.72,0,0,1-3.7,55.5c.5-4,1.1-8,1.6-12A420.85,420.85,0,0,1,853.8,662c1.5-3.6,3-7.2,4.5-10.7A425.27,425.27,0,0,1,804,744.4c2.3-3,4.7-6.1,7-9.1A430.46,430.46,0,0,1,735.3,811l9.1-7a421.32,421.32,0,0,1-93.1,54.3c3.6-1.5,7.2-3,10.7-4.5a418.42,418.42,0,0,1-106.4,28.9c4-.5,8-1.1,12-1.6a430.38,430.38,0,0,1-111.1,0c4,.5,8,1.1,12,1.6A425.24,425.24,0,0,1,362,853.8c3.6,1.5,7.2,3,10.7,4.5A425.27,425.27,0,0,1,279.6,804l9.1,7A430.46,430.46,0,0,1,213,735.3l7,9.1a421.32,421.32,0,0,1-54.3-93.1c1.5,3.6,3,7.2,4.5,10.7a418.42,418.42,0,0,1-28.9-106.4c.5,4,1.1,8,1.6,12a430.38,430.38,0,0,1,0-111.1c-.5,4-1.1,8-1.6,12a417.3,417.3,0,0,1,28.9-106.4c-1.5,3.6-3,7.2-4.5,10.7A425.27,425.27,0,0,1,220,279.7l-7,9.1a423.79,423.79,0,0,1,75.7-75.7l-9.1,7a421.32,421.32,0,0,1,93.1-54.3c-3.6,1.5-7.2,3-10.7,4.5a418.42,418.42,0,0,1,106.4-28.9c-4,.5-8,1.1-12,1.6a430.38,430.38,0,0,1,111.1,0c-4-.5-8-1.1-12-1.6a417.3,417.3,0,0,1,106.4,28.9c-3.6-1.5-7.2-3-10.7-4.5a425.27,425.27,0,0,1,93.1,54.3l-9.1-7a423.79,423.79,0,0,1,75.7,75.7c-2.3-3-4.7-6.1-7-9.1a421.32,421.32,0,0,1,54.3,93.1c-1.5-3.6-3-7.2-4.5-10.7a418.42,418.42,0,0,1,28.9,106.4c-.5-4-1.1-8-1.6-12a411.72,411.72,0,0,1,3.7,55.5,46.18,46.18,0,0,0,13.2,31.8c7.8,7.8,20.6,13.7,31.8,13.2,11.6-.5,23.7-4.3,31.8-13.2s13.2-19.6,13.2-31.8c-.2-93.9-29-188.5-83.7-265.2a490.58,490.58,0,0,0-47.3-57.4c-17-17.6-35.6-33.1-55-47.9C752,113.4,710.8,92,667.4,76.1,578.2,43.5,477.2,40.8,386,66.7c-88.3,25-170,77.2-228.4,148.2-15.6,19-30.3,38.9-43,60-12.8,21.4-23.2,43.8-32.7,66.9-18,44-27.8,90.8-31.4,138.1-7.2,93.9,16.4,190.5,65.1,271,47.3,78.1,118.5,143.3,202,180.9,22.6,10.2,45.8,19.3,69.7,25.9,24.9,7,50.3,11.2,76,14.2,48.1,5.6,97.1,2.4,144.5-7.2,89.9-18.3,174.4-65.9,237.8-132.1,63.9-66.8,108.7-153.4,122.7-245,3.8-25.1,6.4-50.3,6.4-75.7a46.18,46.18,0,0,0-13.2-31.8c-7.8-7.8-20.6-13.7-31.8-13.2C905.3,468.1,884.8,486.8,884.7,512Z" transform="translate(-49.23 -49.23)"/><path d="M557,616.6a82.58,82.58,0,0,1,.7-10c-.5,4-1.1,8-1.6,12a77.78,77.78,0,0,1,5.1-18.9c-1.5,3.6-3,7.2-4.5,10.7a82.5,82.5,0,0,1,9.7-16.8c-2.3,3-4.7,6.1-7,9.1a81.32,81.32,0,0,1,13.7-13.8l-9.1,7a86,86,0,0,1,17.1-10c-3.6,1.5-7.2,3-10.7,4.5,13.2-5.3,26.4-10.4,38.6-17.9a196.87,196.87,0,0,0,33.1-25.9c20.5-20,34.9-44.2,44.9-70.8,5.2-13.8,7.5-27.9,9.3-42.4a145.74,145.74,0,0,0,.6-33c-2.7-27.9-10-54.1-24-78.5C648,278.6,604.3,245.2,555.5,234c-50.4-11.6-106.9-2.8-149.1,28.1-23.6,17.3-44,38.3-57.7,64.4a189.67,189.67,0,0,0-22.1,87.9,46.18,46.18,0,0,0,13.2,31.8c7.8,7.8,20.6,13.7,31.8,13.2,24.5-1.1,44.9-19.8,45-45a156.71,156.71,0,0,1,1.3-19.4c-.5,4-1.1,8-1.6,12a143.2,143.2,0,0,1,9.6-35c-1.5,3.6-3,7.2-4.5,10.7A140.24,140.24,0,0,1,440,351l-7,9.1a146.67,146.67,0,0,1,24.9-24.9l-9.1,7a150.58,150.58,0,0,1,31.7-18.6c-3.6,1.5-7.2,3-10.7,4.5a140.81,140.81,0,0,1,35-9.6c-4,.5-8,1.1-12,1.6a148.23,148.23,0,0,1,38.8,0c-4-.5-8-1.1-12-1.6a143.2,143.2,0,0,1,35,9.6c-3.6-1.5-7.2-3-10.7-4.5a144.06,144.06,0,0,1,31.7,18.6l-9.1-7a146.67,146.67,0,0,1,24.9,24.9c-2.3-3-4.7-6.1-7-9.1A150.58,150.58,0,0,1,603,382.7c-1.5-3.6-3-7.2-4.5-10.7a140.81,140.81,0,0,1,9.6,35c-.5-4-1.1-8-1.6-12a146,146,0,0,1,0,38.5c.5-4,1.1-8,1.6-12a142.15,142.15,0,0,1-9.8,35.7c1.5-3.6,3-7.2,4.5-10.7a143.46,143.46,0,0,1-18.3,31.2c2.3-3,4.7-6.1,7-9.1A146,146,0,0,1,566,494l9.1-7a146.14,146.14,0,0,1-31.3,18.2c3.6-1.5,7.2-3,10.7-4.5-11.2,4.6-22.9,8.5-33,15.5a136.17,136.17,0,0,0-32.7,32c-14.4,19.4-21.4,44.5-21.6,68.5a46.18,46.18,0,0,0,13.2,31.8c7.8,7.8,20.6,13.7,31.8,13.2,24.4-1.2,44.6-19.9,44.8-45.1Z" transform="translate(-49.23 -49.23)"/><path d="M557,750.2v-9.3a34.14,34.14,0,0,0-3.9-17.3,40.35,40.35,0,0,0-23.8-23.8,34.37,34.37,0,0,0-17.3-3.9c-4,.5-8,1.1-12,1.6a45.18,45.18,0,0,0-19.9,11.6c-2.3,3-4.7,6.1-7,9.1a44.18,44.18,0,0,0-6.1,22.7v9.3a34.14,34.14,0,0,0,3.9,17.3,40.35,40.35,0,0,0,23.8,23.8,34.37,34.37,0,0,0,17.3,3.9c4-.5,8-1.1,12-1.6A45.18,45.18,0,0,0,543.9,782c2.3-3,4.7-6.1,7-9.1a44.9,44.9,0,0,0,6.1-22.7Z" transform="translate(-49.23 -49.23)"/></svg>